<svg width="111" height="49" viewBox="0 0 111 49" fill="none" xmlns="http://www.w3.org/2000/svg">
<path d="M17.9374 0.687331L28.1 31.1773H48.7357L58.8984 0.687331L59.1281 0H76.8357L76.3958 1.3236L60.8072 48.0896L60.5774 48.7769H43.6435L43.3647 48.2212L38.4179 38.3295L33.473 48.2212L33.1942 48.7769H32.5736L16.983 48.7789H16.2583L16.0286 48.0916L0.439892 1.3236L0 0H17.7076L17.9374 0.687331ZM110.621 32.4656L106.045 48.0542L105.833 48.7769H61.4611L61.9423 47.4317L67.5312 31.8431L67.7708 31.1773H111L110.621 32.4656ZM17.7076 46.766H31.9511L38.4179 33.8324L44.8847 46.766H59.1281L74.0452 2.01093H60.5774L50.4147 32.5009L50.185 33.1883H26.6508L26.421 32.5009L16.2583 2.01093H2.79056L17.7076 46.766ZM64.3185 46.766H104.329L108.314 33.1883H69.1848L64.3185 46.766ZM41.7249 19.8698L47.0881 27.9135L48.1308 29.4767H28.2846L29.3274 27.9135L34.6906 19.8698L34.9891 19.422H41.4264L41.7249 19.8698ZM32.0434 27.4657H44.3721L40.3502 21.4329H36.0652L32.0434 27.4657Z" fill="#485C11"/>
</svg>
